<svg width="20" height="20" viewBox="0 0 20 20" fill="none" xmlns="http://www.w3.org/2000/svg">
<path d="M10.0004 0.400024C4.69839 0.400024 0.400391 4.69802 0.400391 10C0.400391 15.302 4.69839 19.6 10.0004 19.6C15.3024 19.6 19.6004 15.302 19.6004 10C19.6004 4.69802 15.3024 0.400024 10.0004 0.400024ZM13.9054 8.26402C13.9094 8.34602 13.9104 8.42803 13.9104 8.50803C13.9104 11.008 12.0094 13.889 8.53139 13.889C7.50368 13.8907 6.49736 13.5956 5.63339 13.039C5.78039 13.057 5.93139 13.064 6.08439 13.064C6.97039 13.064 7.78539 12.763 8.43239 12.255C8.03811 12.2473 7.65606 12.1167 7.3395 11.8815C7.02294 11.6464 6.78764 11.3183 6.66639 10.943C6.94955 10.9969 7.24124 10.9856 7.51939 10.91C7.09144 10.8235 6.70659 10.5916 6.4301 10.2537C6.15361 9.91578 6.0025 9.49264 6.00239 9.05602V9.03302C6.25739 9.17402 6.54939 9.26003 6.85939 9.27003C6.45819 9.00295 6.17418 8.5927 6.06544 8.12316C5.95669 7.65362 6.03144 7.16028 6.27439 6.74402C6.74935 7.32802 7.34165 7.80577 8.01296 8.14634C8.68427 8.4869 9.41961 8.68269 10.1714 8.72102C10.0758 8.31533 10.117 7.88943 10.2884 7.50953C10.4599 7.12963 10.752 6.81701 11.1195 6.62029C11.4869 6.42356 11.9091 6.35375 12.3203 6.4217C12.7315 6.48965 13.1088 6.69155 13.3934 6.99602C13.8166 6.9123 14.2224 6.75708 14.5934 6.53702C14.4524 6.97516 14.1571 7.3472 13.7624 7.58402C14.1372 7.53888 14.5033 7.4381 14.8484 7.28502C14.5949 7.66492 14.2755 7.99646 13.9054 8.26402Z" fill="#9497A1"/>
</svg>
